HIERARCHY
ROOT Hips
{
  OFFSET -274.024 67.2248 878.513
  CHANNELS 6 Xposition Yposition Zposition Zrotation Xrotation Yrotation
  JOINT Spine
  {
    OFFSET 0 8 0
    CHANNELS 6 Xposition Yposition Zposition Zrotation Xrotation Yrotation
    JOINT Spine1
    {
      OFFSET 0 8 0
      CHANNELS 6 Xposition Yposition Zposition Zrotation Xrotation Yrotation
      JOINT Spine2
      {
        OFFSET 0 8 0
        CHANNELS 6 Xposition Yposition Zposition Zrotation Xrotation Yrotation
        JOINT Spine3
        {
          OFFSET 0 8 0
          CHANNELS 6 Xposition Yposition Zposition Zrotation Xrotation Yrotation
          JOINT Neck
          {
            OFFSET 0 17 0
            CHANNELS 6 Xposition Yposition Zposition Zrotation Xrotation Yrotation
            JOINT Head
            {
              OFFSET 0 10.8 0
              CHANNELS 6 Xposition Yposition Zposition Zrotation Xrotation Yrotation
              End Site
              {
                OFFSET 0 20.25 0
              }
            }
          }
          JOINT LeftShoulder
          {
            OFFSET 5 17 0
            CHANNELS 6 Xposition Yposition Zposition Zrotation Xrotation Yrotation
            JOINT LeftShoulder2
            {
              OFFSET 6.45 0 0
              CHANNELS 6 Xposition Yposition Zposition Zrotation Xrotation Yrotation
              JOINT LeftArm
              {
                OFFSET 6.45 0 0
                CHANNELS 6 Xposition Yposition Zposition Zrotation Xrotation Yrotation
                JOINT LeftForeArm
                {
                  OFFSET 0 -32.4 -2
                  CHANNELS 6 Xposition Yposition Zposition Zrotation Xrotation Yrotation
                  JOINT LeftHand
                  {
                    OFFSET 0 -25.65 2
                    CHANNELS 6 Xposition Yposition Zposition Zrotation Xrotation Yrotation
                    JOINT LeftHandThumb1
                    {
                      OFFSET -0.5 -1.5 2.65
                      CHANNELS 6 Xposition Yposition Zposition Zrotation Xrotation Yrotation
                      JOINT LeftHandThumb2
                      {
                        OFFSET 0 -3.8 3.7
                        CHANNELS 6 Xposition Yposition Zposition Zrotation Xrotation Yrotation
                        JOINT LeftHandThumb3
                        {
                          OFFSET 0 -3 2.7
                          CHANNELS 6 Xposition Yposition Zposition Zrotation Xrotation Yrotation
                          End Site
                          {
                            OFFSET 0 -2.3 1.8
                          }
                        }
                      }
                    }
                    JOINT LeftHandIndex
                    {
                      OFFSET 0 -1.9 1.6
                      CHANNELS 6 Xposition Yposition Zposition Zrotation Xrotation Yrotation
                      JOINT LeftHandIndex1
                      {
                        OFFSET 0 -8.3 1.9
                        CHANNELS 6 Xposition Yposition Zposition Zrotation Xrotation Yrotation
                        JOINT LeftHandIndex2
                        {
                          OFFSET 0 -4.5 0
                          CHANNELS 6 Xposition Yposition Zposition Zrotation Xrotation Yrotation
                          JOINT LeftHandIndex3
                          {
                            OFFSET 0 -3.4 0
                            CHANNELS 6 Xposition Yposition Zposition Zrotation Xrotation Yrotation
                            End Site
                            {
                              OFFSET 0 -2.6 0
                            }
                          }
                        }
                      }
                    }
                    JOINT LeftHandMiddle
                    {
                      OFFSET -0.25 -2.2 0.4
                      CHANNELS 6 Xposition Yposition Zposition Zrotation Xrotation Yrotation
                      JOINT LeftHandMiddle1
                      {
                        OFFSET 0 -8.3 1
                        CHANNELS 6 Xposition Yposition Zposition Zrotation Xrotation Yrotation
                        JOINT LeftHandMiddle2
                        {
                          OFFSET 0 -4.65 0
                          CHANNELS 6 Xposition Yposition Zposition Zrotation Xrotation Yrotation
                          JOINT LeftHandMiddle3
                          {
                            OFFSET 0 -3.3 0
                            CHANNELS 6 Xposition Yposition Zposition Zrotation Xrotation Yrotation
                            End Site
                            {
                              OFFSET 0 -2.7 0
                            }
                          }
                        }
                      }
                    }
                    JOINT LeftHandRing
                    {
                      OFFSET -0.5 -2.15 -0.8
                      CHANNELS 6 Xposition Yposition Zposition Zrotation Xrotation Yrotation
                      JOINT LeftHandRing1
                      {
                        OFFSET 0 -7.75 -0.2
                        CHANNELS 6 Xposition Yposition Zposition Zrotation Xrotation Yrotation
                        JOINT LeftHandRing2
                        {
                          OFFSET 0 -3.8 0
                          CHANNELS 6 Xposition Yposition Zposition Zrotation Xrotation Yrotation
                          JOINT LeftHandRing3
                          {
                            OFFSET 0 -3.4 0
                            CHANNELS 6 Xposition Yposition Zposition Zrotation Xrotation Yrotation
                            End Site
                            {
                              OFFSET 0 -2.6 0
                            }
                          }
                        }
                      }
                    }
                    JOINT LeftHandPinky
                    {
                      OFFSET -0.75 -1.75 -1.85
                      CHANNELS 6 Xposition Yposition Zposition Zrotation Xrotation Yrotation
                      JOINT LeftHandPinky1
                      {
                        OFFSET 0 -7.15 -1
                        CHANNELS 6 Xposition Yposition Zposition Zrotation Xrotation Yrotation
                        JOINT LeftHandPinky2
                        {
                          OFFSET 0 -3 0
                          CHANNELS 6 Xposition Yposition Zposition Zrotation Xrotation Yrotation
                          JOINT LeftHandPinky3
                          {
                            OFFSET 0 -2.35 0
                            CHANNELS 6 Xposition Yposition Zposition Zrotation Xrotation Yrotation
                            End Site
                            {
                              OFFSET 0 -2.1 0
                            }
                          }
                        }
                      }
                    }
                  }
                }
              }
            }
          }
          JOINT RightShoulder
          {
            OFFSET -5 17 0
            CHANNELS 6 Xposition Yposition Zposition Zrotation Xrotation Yrotation
            JOINT RightShoulder2
            {
              OFFSET -6.45 0 0
              CHANNELS 6 Xposition Yposition Zposition Zrotation Xrotation Yrotation
              JOINT RightArm
              {
                OFFSET -6.45 0 0
                CHANNELS 6 Xposition Yposition Zposition Zrotation Xrotation Yrotation
                JOINT RightForeArm
                {
                  OFFSET 0 -32.4 -2
                  CHANNELS 6 Xposition Yposition Zposition Zrotation Xrotation Yrotation
                  JOINT RightHand
                  {
                    OFFSET 0 -25.65 2
                    CHANNELS 6 Xposition Yposition Zposition Zrotation Xrotation Yrotation
                    JOINT RightHandThumb1
                    {
                      OFFSET 0.5 -1.5 2.65
                      CHANNELS 6 Xposition Yposition Zposition Zrotation Xrotation Yrotation
                      JOINT RightHandThumb2
                      {
                        OFFSET 0 -3.8 3.7
                        CHANNELS 6 Xposition Yposition Zposition Zrotation Xrotation Yrotation
                        JOINT RightHandThumb3
                        {
                          OFFSET 0 -3 2.7
                          CHANNELS 6 Xposition Yposition Zposition Zrotation Xrotation Yrotation
                          End Site
                          {
                            OFFSET 0 -2.3 1.8
                          }
                        }
                      }
                    }
                    JOINT RightHandIndex
                    {
                      OFFSET 0 -1.9 1.6
                      CHANNELS 6 Xposition Yposition Zposition Zrotation Xrotation Yrotation
                      JOINT RightHandIndex1
                      {
                        OFFSET 0 -8.3 1.9
                        CHANNELS 6 Xposition Yposition Zposition Zrotation Xrotation Yrotation
                        JOINT RightHandIndex2
                        {
                          OFFSET 0 -4.5 0
                          CHANNELS 6 Xposition Yposition Zposition Zrotation Xrotation Yrotation
                          JOINT RightHandIndex3
                          {
                            OFFSET 0 -3.4 0
                            CHANNELS 6 Xposition Yposition Zposition Zrotation Xrotation Yrotation
                            End Site
                            {
                              OFFSET 0 -2.6 0
                            }
                          }
                        }
                      }
                    }
                    JOINT RightHandMiddle
                    {
                      OFFSET 0.25 -2.2 0.4
                      CHANNELS 6 Xposition Yposition Zposition Zrotation Xrotation Yrotation
                      JOINT RightHandMiddle1
                      {
                        OFFSET 0 -8.3 1
                        CHANNELS 6 Xposition Yposition Zposition Zrotation Xrotation Yrotation
                        JOINT RightHandMiddle2
                        {
                          OFFSET 0 -4.65 0
                          CHANNELS 6 Xposition Yposition Zposition Zrotation Xrotation Yrotation
                          JOINT RightHandMiddle3
                          {
                            OFFSET 0 -3.3 0
                            CHANNELS 6 Xposition Yposition Zposition Zrotation Xrotation Yrotation
                            End Site
                            {
                              OFFSET 0 -2.7 0
                            }
                          }
                        }
                      }
                    }
                    JOINT RightHandRing
                    {
                      OFFSET 0.5 -2.15 -0.8
                      CHANNELS 6 Xposition Yposition Zposition Zrotation Xrotation Yrotation
                      JOINT RightHandRing1
                      {
                        OFFSET 0 -7.75 -0.2
                        CHANNELS 6 Xposition Yposition Zposition Zrotation Xrotation Yrotation
                        JOINT RightHandRing2
                        {
                          OFFSET 0 -3.8 0
                          CHANNELS 6 Xposition Yposition Zposition Zrotation Xrotation Yrotation
                          JOINT RightHandRing3
                          {
                            OFFSET 0 -3.4 0
                            CHANNELS 6 Xposition Yposition Zposition Zrotation Xrotation Yrotation
                            End Site
                            {
                              OFFSET 0 -2.6 0
                            }
                          }
                        }
                      }
                    }
                    JOINT RightHandPinky
                    {
                      OFFSET 0.75 -1.75 -1.85
                      CHANNELS 6 Xposition Yposition Zposition Zrotation Xrotation Yrotation
                      JOINT RightHandPinky1
                      {
                        OFFSET 0 -7.15 -1
                        CHANNELS 6 Xposition Yposition Zposition Zrotation Xrotation Yrotation
                        JOINT RightHandPinky2
                        {
                          OFFSET 0 -3 0
                          CHANNELS 6 Xposition Yposition Zposition Zrotation Xrotation Yrotation
                          JOINT RightHandPinky3
                          {
                            OFFSET 0 -2.35 0
                            CHANNELS 6 Xposition Yposition Zposition Zrotation Xrotation Yrotation
                            End Site
                            {
                              OFFSET 0 -2.1 0
                            }
                          }
                        }
                      }
                    }
                  }
                }
              }
            }
          }
        }
      }
    }
  }
  JOINT LeftUpLeg
  {
    OFFSET 8 0 0
    CHANNELS 6 Xposition Yposition Zposition Zrotation Xrotation Yrotation
    JOINT LeftLeg
    {
      OFFSET 0 -45 -1
      CHANNELS 6 Xposition Yposition Zposition Zrotation Xrotation Yrotation
      JOINT LeftFoot
      {
        OFFSET 0 -41 -2
        CHANNELS 6 Xposition Yposition Zposition Zrotation Xrotation Yrotation
        JOINT LeftToeBase
        {
          OFFSET 0 -7.5 12.5
          CHANNELS 6 Xposition Yposition Zposition Zrotation Xrotation Yrotation
          JOINT LeftFootToe
          {
            OFFSET 0 0 4
            CHANNELS 6 Xposition Yposition Zposition Zrotation Xrotation Yrotation
            End Site
            {
              OFFSET 0 0 0
            }
          }
        }
      }
    }
  }
  JOINT RightUpLeg
  {
    OFFSET -8 0 0
    CHANNELS 6 Xposition Yposition Zposition Zrotation Xrotation Yrotation
    JOINT RightLeg
    {
      OFFSET 0 -45 -1
      CHANNELS 6 Xposition Yposition Zposition Zrotation Xrotation Yrotation
      JOINT RightFoot
      {
        OFFSET 0 -41 -2
        CHANNELS 6 Xposition Yposition Zposition Zrotation Xrotation Yrotation
        JOINT RightToeBase
        {
          OFFSET 0 -7.5 12.5
          CHANNELS 6 Xposition Yposition Zposition Zrotation Xrotation Yrotation
          JOINT RightFootToe
          {
            OFFSET 0 0 4
            CHANNELS 6 Xposition Yposition Zposition Zrotation Xrotation Yrotation
            End Site
            {
              OFFSET 0 0 0
            }
          }
        }
      }
    }
  }
}
MOTION
Frames:	3
Frame Time:	0.0111111
-334.444 91.1667 1092.76 3.98154 -4.74704 136.762 0 8 0 1.1523 23.0052 13.6957 5.68434e-14 8 0 -2.03275 8.31463 4.8509 0 8 0 -0.929039 4.18583 2.38692 0 8 1.13687e-13 -0.925335 4.17069 2.37809 -5.68434e-14 17 -1.13687e-13 -2.00847 -0.399017 1.02169 -5.68434e-14 10.8 -1.13687e-13 -4.67652 -0.98645 2.36189 5 17 0 -9.75009 0.0287168 0.839076 6.45 1.13687e-13 1.13687e-13 -0.600281 -0.410591 0.718363 6.45 -1.13687e-13 0 24.2153 8.79638 67.4216 0 -32.4 -2 -69.8416 -54.5986 -88.4137 -2.84217e-14 -25.65 2 -35.7958 -45.531 -13.2209 -0.5 -1.5 2.65 41.0864 -23.498 -17.188 -1.13687e-13 -3.8 3.7 -0.0628867 27.3582 0.0491365 0 -3 2.7 -0.0387512 68.2787 0.0386393 5.68434e-14 -1.9 1.6 3.18055e-15 1.98785e-15 1.19271e-15 -1.13687e-13 -8.3 1.9 -4.63452 14.1306 0.662538 1.13687e-13 -4.5 5.68434e-14 -56.0927 -0.00899702 -0.00651307 -1.13687e-13 -3.4 0 -38.9265 -0.0139261 -0.0124529 -0.25 -2.2 0.4 3.18055e-15 1.98785e-15 1.19271e-15 5.68434e-14 -8.3 1 -4.55219 5.38402 0.387167 5.68434e-14 -4.65 0 -16.7182 0.0455922 0.000320307 1.13687e-13 -3.3 0 -13.644 0.0300785 0.00441701 -0.5 -2.15 -0.8 3.18055e-15 1.98785e-15 1.19271e-15 5.68434e-14 -7.75 -0.2 -1.30974 0.324491 0.0416407 5.68434e-14 -3.8 0 -31.613 0.0432581 0.0301808 0 -3.4 -2.84217e-14 -23.0521 0.0159254 0.0269153 -0.75 -1.75 -1.85 3.18055e-15 1.98785e-15 1.19271e-15 5.68434e-14 -7.15 -1 -0.181113 -3.45789 0.00581146 -5.68434e-14 -3 2.84217e-14 -3.74461 0.0452852 0.0191048 1.13687e-13 -2.35 0 -3.36631 0.0386136 0.01955 -5 17 0 -1.05145 0.282194 -5.22821 -6.45 0 -1.13687e-13 -1.88336 0.30169 0.656535 -6.45 0 1.13687e-13 -44.2077 -37.0799 1.10692 0 -32.4 -2 -48.6978 -57.5264 -44.3106 1.42109e-14 -25.65 2 -11.8506 -1.02578 26.828 0.5 -1.5 2.65 61.44 28.916 -121.449 -2.27374e-13 -3.8 3.7 0.251087 31.2944 0.0196561 0 -3 2.7 0.0137175 6.81552 -0.0178429 0 -1.9 1.6 -8.82781e-32 -3.18055e-15 -1.59028e-15 0 -8.3 1.9 30.847 -8.8515 2.10543 -5.68434e-14 -4.5 -2.84217e-14 -1.54791e-07 0.00724818 0.0012236 0 -3.4 2.84217e-14 -1.46945e-07 0.0070126 0.0012006 0.25 -2.2 0.4 -8.82781e-32 -3.18055e-15 -1.59028e-15 1.42109e-14 -8.3 1 34.3071 -1.44085 -0.463306 5.68434e-14 -4.65 0 62.18 -0.00274281 -0.000818036 -1.13687e-13 -3.3 0 43.97 0.00235177 -0.000382333 0.5 -2.15 -0.8 -8.82781e-32 -3.18055e-15 -1.59028e-15 -2.84217e-14 -7.75 -0.2 42.8667 3.86341 -3.65176 0 -3.8 0 44.2172 0.00117526 -0.00327461 -1.13687e-13 -3.4 1.13687e-13 30.7007 -0.00294329 -0.00196707 0.75 -1.75 -1.85 -8.82781e-32 -3.18055e-15 -1.59028e-15 0 -7.15 -1 42.6289 28.6104 -15.0602 5.68434e-14 -3 0 81.8897 -0.00241577 0.00151684 0 -2.35 1.13687e-13 69.3526 0.00399713 -0.000315012 8 0 -2.27374e-13 11.2956 -21.9264 -21.1837 0 -45 -1 0.166696 10.9983 -3.2065 0 -41 -2 -5.79307 -1.69106 25.3646 0 -7.5 12.5 -4.41391e-32 -7.95139e-16 -3.18055e-15 -5.68434e-14 0 4 7.67338 -3.84694 50.2493 -8 0 0 -7.67547 -1.79826 -84.6863 0 -45 -1 -0.112269 19.6244 0.948233 0 -41 -2 0.257165 -5.76713 6.96661 0 -7.5 12.5 2.15523e-35 3.88251e-19 -3.18055e-15 0 0 4 2.5629 5.47894 97.6398 
-334.444 91.1668 1092.75 3.98206 -4.74671 136.753 1.13687e-13 8 2.27374e-13 1.15751 22.996 13.6977 5.68434e-14 8 0 -2.03231 8.31004 4.8513 5.68434e-14 8 0 -0.928774 4.18391 2.38725 -5.68434e-14 8 -1.13687e-13 -0.925063 4.16854 2.37842 5.68434e-14 17 -1.13687e-13 -2.01636 -0.474482 0.995622 5.68434e-14 10.8 0 -4.69334 -1.16129 2.29688 5 17 -2.27374e-13 -9.75902 0.0241979 0.802796 6.45 0 0 -0.596593 -0.410172 0.719004 6.45 0 0 24.2486 9.15477 67.1884 0 -32.4 -2 -70.2533 -54.8541 -89.1674 2.84217e-14 -25.65 2 -36.2337 -46.2502 -13.7315 -0.5 -1.5 2.65 40.7991 -22.4509 -16.9828 -5.68434e-14 -3.8 3.7 -0.0721654 26.3767 0.0604569 0 -3 2.7 -0.0523765 68.0356 0.0511979 -1.13687e-13 -1.9 1.6 3.18055e-15 -1.98785e-15 -8.34896e-15 -5.68434e-14 -8.3 1.9 -5.44017 14.2509 0.768973 0 -4.5 -5.68434e-14 -55.6864 -0.00952889 -0.00682927 -1.13687e-13 -3.4 5.68434e-14 -38.6144 -0.0138946 -0.0126549 -0.25 -2.2 0.4 3.18055e-15 -1.98785e-15 -8.34896e-15 0 -8.3 1 -5.0581 5.52579 0.417588 0 -4.65 0 -18.0005 0.0597321 -0.00391332 -1.13687e-13 -3.3 -1.13687e-13 -14.5006 0.0393917 0.00423667 -0.5 -2.15 -0.8 3.18055e-15 -1.98785e-15 -8.34896e-15 5.68434e-14 -7.75 -0.2 -1.45756 0.796372 0.0423926 -5.68434e-14 -3.8 0 -33.3586 0.0508685 0.0361184 0 -3.4 2.84217e-14 -24.101 0.0178929 0.0323623 -0.75 -1.75 -1.85 3.18055e-15 -1.98785e-15 -8.34896e-15 -5.68434e-14 -7.15 -1 -0.124321 -2.7937 0.000271875 1.13687e-13 -3 -2.84217e-14 -5.52556 0.0615849 0.0271242 0 -2.35 0 -4.86245 0.0503418 0.0280404 -5 17 0 -1.07366 0.265276 -5.26954 -6.45 1.13687e-13 1.13687e-13 -1.87478 0.302053 0.66444 -6.45 -2.27374e-13 0 -44.142 -37.0602 1.13809 0 -32.4 -2 -48.6496 -57.5443 -44.2839 -2.84217e-14 -25.65 2 -11.8261 -1.05247 26.8358 0.5 -1.5 2.65 61.4286 28.9364 -121.427 1.13687e-13 -3.8 3.7 0.251099 31.2803 0.0196512 1.13687e-13 -3 2.7 0.0137185 6.81551 -0.0178443 -2.84217e-14 -1.9 1.6 7.95139e-16 3.18055e-15 7.95139e-16 1.42109e-14 -8.3 1.9 30.8813 -8.83731 2.10464 0 -4.5 -2.84217e-14 -1.55505e-07 0.00727162 0.00122528 1.13687e-13 -3.4 0 -1.47627e-07 0.00703532 0.00120228 0.25 -2.2 0.4 7.95139e-16 3.18055e-15 7.95139e-16 0 -8.3 1 34.3252 -1.45259 -0.461124 0 -4.65 -1.13687e-13 62.122 -0.00276152 -0.000821875 0 -3.3 5.68434e-14 43.9179 0.00233716 -0.00036929 0.5 -2.15 -0.8 7.95139e-16 3.18055e-15 7.95139e-16 1.42109e-14 -7.75 -0.2 42.8725 3.84746 -3.64412 0 -3.8 5.68434e-14 44.1965 0.00115994 -0.0032927 0 -3.4 0 30.6876 -0.00295423 -0.00196776 0.75 -1.75 -1.85 7.95139e-16 3.18055e-15 7.95139e-16 -2.84217e-14 -7.15 -1 42.6162 28.6303 -15.0663 0 -3 0 81.8904 -0.00241414 0.00152589 0 -2.35 0 69.354 0.00401557 -0.000319299 8 -1.42109e-14 0 11.3016 -21.9136 -21.1804 1.13687e-13 -45 -1 0.165565 10.9764 -3.20316 0 -41 -2 -5.80627 -1.66945 25.3666 -5.68434e-14 -7.5 12.5 -8.82781e-32 -1.59028e-15 -3.18055e-15 -5.68434e-14 2.84217e-14 4 7.67532 -3.85954 50.2515 -8 1.42109e-14 2.27374e-13 -7.67605 -1.79409 -84.7087 2.27374e-13 -45 -1 -0.112173 19.6217 0.948378 0 -41 -2 0.254789 -5.76403 6.98992 0 -7.5 12.5 -1.16475e-18 -3.88251e-19 9.54166e-15 -2.27374e-13 0 4 2.56205 5.4778 97.6404 
-334.444 91.1669 1092.75 3.98254 -4.74634 136.744 0 8 0 1.1586 22.9862 13.6997 0 8 0 -2.03187 8.30511 4.85169 5.68434e-14 8 0 -0.928504 4.18143 2.38758 5.68434e-14 8 0 -0.924808 4.16637 2.37876 -5.68434e-14 17 0 -2.02373 -0.547459 0.969543 -1.13687e-13 10.8 1.13687e-13 -4.7091 -1.33027 2.23199 5 17 1.13687e-13 -9.76625 0.0200034 0.770575 6.45 -1.13687e-13 0 -0.592977 -0.409755 0.719603 6.45 -1.13687e-13 -1.13687e-13 24.2929 9.52497 66.9247 0 -32.4 -2 -70.6691 -55.1428 -89.9376 -5.68434e-14 -25.65 2 -36.6778 -47.0471 -14.3149 -0.5 -1.5 2.65 40.3855 -21.3178 -16.9335 0 -3.8 3.7 -0.0842211 25.3163 0.0701229 0 -3 2.7 -0.0879752 67.498 0.0822459 1.7053e-13 -1.9 1.6 1.57245e-31 2.38542e-15 -3.77691e-15 -1.13687e-13 -8.3 1.9 -6.37385 14.3656 0.894366 -1.13687e-13 -4.5 5.68434e-14 -55.358 -0.0099449 -0.00710261 0 -3.4 -5.68434e-14 -38.3615 -0.0138571 -0.0128339 -0.25 -2.2 0.4 1.57245e-31 2.38542e-15 -3.77691e-15 5.68434e-14 -8.3 1 -5.6557 5.61801 0.453601 1.7053e-13 -4.65 0 -19.4407 0.0723659 -0.00964371 -1.13687e-13 -3.3 0 -15.4501 0.0477982 0.00409249 -0.5 -2.15 -0.8 1.57245e-31 2.38542e-15 -3.77691e-15 0 -7.75 -0.2 -1.6404 1.30594 0.0472176 0 -3.8 0 -35.1877 0.0553464 0.0399923 1.13687e-13 -3.4 0 -25.202 0.0199746 0.0327978 -0.75 -1.75 -1.85 1.57245e-31 2.38542e-15 -3.77691e-15 0 -7.15 -1 -0.0774355 -2.05882 -0.00427079 -1.13687e-13 -3 -2.84217e-14 -7.61018 0.0739038 0.0354247 0 -2.35 0 -6.57104 0.0572635 0.0365161 -5 17 0 -1.09543 0.251439 -5.30831 -6.45 2.27374e-13 1.13687e-13 -1.86816 0.302402 0.673849 -6.45 0 -1.13687e-13 -44.0774 -37.0434 1.1596 0 -32.4 -2 -48.5957 -57.5724 -44.2526 0 -25.65 2 -11.8116 -1.05526 26.844 0.5 -1.5 2.65 61.3999 28.9525 -121.386 1.13687e-13 -3.8 3.7 0.25111 31.269 0.019647 -1.13687e-13 -3 2.7 0.0137195 6.81551 -0.0178457 0 -1.9 1.6 -3.97569e-15 9.54166e-15 -7.95139e-16 0 -8.3 1.9 30.919 -8.8077 2.09904 -5.68434e-14 -4.5 2.84217e-14 -1.56217e-07 0.00729505 0.00122694 0 -3.4 -2.84217e-14 -1.48307e-07 0.00705802 0.00120393 0.25 -2.2 0.4 -3.97569e-15 9.54166e-15 -7.95139e-16 -1.42109e-14 -8.3 1 34.3581 -1.45158 -0.460299 0 -4.65 -5.68434e-14 62.0679 -0.00278023 -0.000825747 0 -3.3 1.13687e-13 43.8694 0.00232252 -0.000356275 0.5 -2.15 -0.8 -3.97569e-15 9.54166e-15 -7.95139e-16 2.84217e-14 -7.75 -0.2 42.9022 3.83669 -3.64253 0 -3.8 -1.13687e-13 44.1514 0.00114464 -0.00331081 2.27374e-13 -3.4 -1.13687e-13 30.6591 -0.00296511 -0.0019685 0.75 -1.75 -1.85 -3.97569e-15 9.54166e-15 -7.95139e-16 0 -7.15 -1 42.6575 28.6436 -15.0906 0 -3 1.13687e-13 81.8666 -0.00241252 0.00153492 0 -2.35 1.13687e-13 69.3089 0.004034 -0.000323549 8 -1.42109e-14 0 11.3085 -21.8985 -21.1767 -1.13687e-13 -45 -1 0.164274 10.9511 -3.19987 0 -41 -2 -5.82025 -1.64669 25.3691 -1.13687e-13 -7.5 12.5 -1.59028e-15 -3.97569e-15 -1.27222e-14 0 0 4 7.67736 -3.87248 50.2538 -8 1.42109e-14 0 -7.67597 -1.78996 -84.7299 -2.27374e-13 -45 -1 -0.112076 19.6192 0.948512 0 -41 -2 0.252878 -5.76109 7.01409 2.27374e-13 -7.5 12.5 3.88251e-19 1.94126e-19 -0 0 0 4 2.56191 5.47694 97.6408 
